<svg id="prefix___Layer_2" data-name="Layer 2" xmlns="http://www.w3.org/2000/svg" viewBox="0 0 105 105"><defs><style>.prefix__cls-1{fill:#6b728e}.prefix__cls-2{fill:#404257}</style></defs><g id="prefix___Layer_1-2" data-name="Layer 1"><g id="prefix__g3"><path id="prefix__path2" class="prefix__cls-1" d="M29.56 59.69c3.39-2.25 7.15-3.48 10.78-4.68.52-.17 1.04-.34 1.56-.52l.11-.04c.77-.27 1.5-.52 2.09-.85.03-.06.07-.17.11-.34-2.99-4.37-5.03-11.13-5.03-16.91 0-4.91 1.54-8.55 4.45-10.76-1.26-.64-2.78-.88-4.41-.88-4.35 0-7.88 1.74-7.88 7.98 0 4.14 1.55 9.23 3.87 12.18-.02.23-.05.47-.09.7-.14.63-.36 1.34-.95 1.7-.67.39-1.4.65-2.13.9-3.01 1.01-6.13 1.91-8.81 3.68-1.39.92-2.33 2.5-2.85 4.06-.54 1.62-.75 3.88-.72 5.16h8.22c.52-.64 1.08-.99 1.67-1.38z"/><path id="prefix__path3" class="prefix__cls-1" d="M84.6 55.91c-.52-1.56-1.46-3.09-2.85-4-2.68-1.78-5.79-2.7-8.81-3.71-.73-.25-1.47-.52-2.13-.92-.59-.35-.82-1.07-.95-1.7-.06-.34-.1-.68-.12-1.02 2.18-2.99 3.63-7.87 3.63-11.87 0-6.24-3.53-7.98-7.88-7.98-1.65 0-3.19.25-4.46.91 2.88 2.22 4.41 5.85 4.41 10.73 0 5.63-1.89 12.12-4.76 16.52 0 .05.02.1.02.15.08.34.14.52.18.61.63.35 1.38.63 2.23.92l1.26.42c3.73 1.24 7.59 2.51 11.06 4.81.56.37 1.09.65 1.59 1.29h8.29c.03-1.27-.19-3.54-.72-5.16z"/></g><path id="prefix__path4" class="prefix__cls-2" d="M77.79 67.37c-.69-2.08-1.95-4.14-3.8-5.36-3.57-2.37-7.72-3.61-11.74-4.96-.97-.34-1.95-.7-2.84-1.23-.79-.47-1.09-1.43-1.27-2.28-.08-.45-.13-.9-.16-1.36 2.91-3.99 4.85-10.49 4.85-15.82 0-8.32-4.7-10.64-10.51-10.64s-10.5 2.32-10.5 10.64c0 5.52 2.07 12.3 5.16 16.24-.03.31-.07.62-.12.93-.18.85-.48 1.79-1.27 2.26-.89.53-1.87.86-2.84 1.2-4.02 1.35-8.17 2.54-11.74 4.91-1.85 1.22-3.11 3.39-3.8 5.47-.71 2.16-1.01 4.86-.96 6.93h52.51c.04-2.07-.25-4.77-.96-6.93z"/><path class="prefix__cls-2" d="M104.27 51.22l-4.44-2.66c-.03-.47-.08-.95-.14-1.42l3.84-3.48c.39-.35.56-.88.46-1.4-.1-.52-.47-.94-.96-1.12l-4.88-1.75c-.12-.45-.26-.91-.41-1.36l3.08-4.15c.32-.43.38-.98.18-1.47s-.64-.83-1.16-.91l-5.14-.77c-.21-.42-.43-.83-.65-1.23s2.21-4.69 2.21-4.69a1.497 1.497 0 00-1.43-2.14l-5.2.25c-.28-.36-.57-.72-.88-1.07l1.27-5.05a1.47 1.47 0 00-.4-1.42c-.37-.37-.91-.53-1.42-.4l-5.05 1.27c-.35-.31-.71-.6-1.07-.88l.25-5.2c.03-.53-.22-1.03-.66-1.32-.44-.29-1-.33-1.48-.11l-4.68 2.21h-.01c-.41-.23-.81-.45-1.23-.66h-.01l-.76-5.13A1.49 1.49 0 0072.59 4c-.49-.2-1.04-.14-1.47.18l-4.15 3.08c-.45-.15-.9-.29-1.36-.42h-.01l-1.74-4.86a1.501 1.501 0 00-2.52-.51l-3.48 3.84c-.47-.06-.94-.11-1.41-.14L53.79.73C53.51.28 53.03 0 52.5 0s-1.02.28-1.29.73l-2.66 4.44c-.47.03-.94.08-1.41.14l-3.48-3.84a1.501 1.501 0 00-2.52.51L39.4 6.84h-.01c-.46.13-.91.27-1.36.42l-4.15-3.08A1.52 1.52 0 0032.41 4c-.49.2-.83.64-.91 1.16l-.76 5.13h-.01c-.42.21-.82.43-1.23.66l-4.68-2.21c-.48-.22-1.04-.18-1.48.11-.44.29-.69.79-.66 1.32l.25 5.2c-.36.28-.72.57-1.07.88l-5.05-1.27c-.51-.13-1.05.03-1.42.4-.38.37-.53.91-.4 1.42l1.27 5.05c-.31.35-.6.71-.88 1.07l-5.2-.25c-.53-.03-1.03.23-1.32.66-.3.44-.34 1-.11 1.48l2.21 4.68c-.22.41-.44.82-.65 1.24l-5.14.77c-.52.08-.96.42-1.16.91-.21.49-.14 1.04.18 1.47l3.08 4.15c-.15.45-.29.91-.41 1.36l-4.88 1.75c-.49.18-.86.6-.96 1.12-.1.52.07 1.05.46 1.4l3.84 3.48c-.06.47-.11.95-.14 1.42L.74 51.22c-.45.27-.73.76-.73 1.28s.28 1.02.73 1.29l4.44 2.66c.03.47.08.94.14 1.41l-3.84 3.48c-.39.36-.56.89-.46 1.4.1.52.47.95.96 1.12l4.88 1.75c.12.45.26.91.41 1.36l-3.08 4.16c-.32.42-.39.98-.18 1.46.2.49.64.84 1.16.91l5.14.77c.21.42.43.83.65 1.23s-2.21 4.7-2.21 4.7c-.23.47-.19 1.03.11 1.47.28.42.75.67 1.24.67.03 0 .05 0 .08-.01l5.2-.25c.28.36.57.72.88 1.07l-1.27 5.05a1.495 1.495 0 001.46 1.86c.12 0 .24 0 .36-.04l5.05-1.26c.35.3.71.59 1.07.87l-.25 5.2c-.03.53.22 1.03.66 1.32.25.17.54.26.84.26.21 0 .43-.05.64-.15l4.68-2.21c.41.23.81.45 1.23.66h.01l.76 5.13c.08.52.42.96.91 1.17.18.07.38.11.57.11.32 0 .63-.1.9-.29l4.15-3.09c.45.15.9.29 1.36.41l1.75 4.88a1.499 1.499 0 001.41.99c.42 0 .82-.17 1.11-.49l3.48-3.84c.47.06.94.11 1.41.14l2.66 4.44c.27.46.76.73 1.29.73s1.01-.27 1.29-.73l2.66-4.44c.47-.03.94-.08 1.41-.14l3.48 3.84a1.486 1.486 0 001.4.46c.52-.1.94-.47 1.12-.96l1.75-4.88c.46-.12.91-.26 1.36-.41l4.15 3.09c.27.19.58.29.9.29.19 0 .39-.04.57-.11.49-.21.83-.65.91-1.17l.76-5.13h.01c.42-.21.82-.43 1.23-.66h.01l4.68 2.21c.21.1.43.15.64.15.3 0 .59-.09.84-.26.44-.29.69-.79.66-1.32l-.25-5.2c.36-.28.72-.57 1.07-.87l5.05 1.26c.12.03.24.04.36.04a1.495 1.495 0 001.46-1.86l-1.27-5.05c.31-.35.6-.71.88-1.07l5.2.25s.05.01.07.01c.5 0 .97-.25 1.25-.67.29-.44.34-1 .11-1.47l-2.21-4.69c.22-.41.44-.82.65-1.24l5.14-.77c.52-.07.96-.42 1.16-.91.2-.48.14-1.04-.18-1.46l-3.08-4.16c.15-.45.29-.91.41-1.36l4.88-1.75c.49-.17.86-.6.96-1.12.1-.51-.07-1.04-.46-1.4l-3.84-3.48c.06-.47.11-.94.14-1.41l4.44-2.66c.45-.27.73-.76.73-1.29s-.28-1.01-.73-1.28zm-54-40.72c.54-.61 1.34-1 2.23-1s1.69.39 2.23 1a2.984 2.984 0 01.32 3.58 3 3 0 01-5.55-1.58c0-.77.29-1.46.77-2zm-38.4 31.14a2.963 2.963 0 011.37-4.23c.65-.3 1.41-.36 2.14-.12.56.18 1.03.51 1.37.93.65.76.89 1.83.56 2.85a2.95 2.95 0 01-2.14 1.97c-.53.14-1.09.13-1.64-.05-.73-.24-1.31-.73-1.66-1.35zm19.55 44.99c-.46.63-1.11 1.02-1.81 1.16-.8.18-1.67.02-2.39-.5a2.95 2.95 0 01-1.21-2.12c-.08-.71.1-1.45.55-2.07.35-.48.81-.82 1.32-1.02.92-.37 2.01-.27 2.87.36.86.63 1.3 1.63 1.22 2.62-.02.55-.21 1.09-.55 1.57zm47.57-1.46c-.08.82-.5 1.6-1.22 2.12-.71.52-1.58.68-2.38.5-.7-.14-1.35-.53-1.81-1.16-.34-.48-.53-1.02-.55-1.57a2.96 2.96 0 011.22-2.62c.86-.63 1.95-.73 2.87-.36.51.2.97.54 1.32 1.02.45.62.63 1.36.55 2.07zm1.47-6.22l-6.92-1.1c-.78-.12-1.59.07-2.23.54a2.96 2.96 0 00-1.2 1.96l-1.1 6.93c-5 2.38-10.6 3.72-16.51 3.72s-11.51-1.34-16.51-3.72l-1.1-6.93a3.008 3.008 0 00-3.43-2.5l-6.92 1.1C18.02 72.05 14 62.73 14 52.5c0-1.68.11-3.33.32-4.96l6.25-3.18a2.997 2.997 0 001.32-4.03l-3.19-6.26c5.46-9.96 15.19-17.26 26.71-19.42l4.97 4.97c.58.59 1.35.88 2.12.88s1.54-.29 2.12-.88l4.97-4.97c11.52 2.16 21.25 9.46 26.71 19.42l-3.19 6.26a3.002 3.002 0 001.31 4.03l6.26 3.18c.21 1.63.32 3.28.32 4.96 0 10.23-4.02 19.55-10.54 26.45zm12.67-37.31c-.35.62-.93 1.11-1.66 1.35-.55.18-1.11.19-1.64.05a2.95 2.95 0 01-2.14-1.97c-.33-1.02-.09-2.08.56-2.85.34-.42.8-.75 1.36-.93.74-.24 1.49-.18 2.15.12a2.963 2.963 0 011.37 4.23z"/></g></svg>